#!OML:ASF F:\twosubjects\two\Thursday\Session 1\justin.ASF
:FULLY-SPECIFIED
:DEGREES
315
root 1.78096 18.4526 8.74639 -385.202 -83.686 391.299
lowerback 4.85348 0.771605 -2.73918
upperback 1.15939 0.90822 2.33966
thorax -1.60888 0.455047 3.89667
lowerneck -12.5277 -11.9887 -17.0555
upperneck 17.1348 -17.5538 18.7255
head 10.8794 -7.77114 6.81169
rclavicle -1.15295e-014 3.18055e-015
rhumerus -16.5855 -32.8686 -62.1774
rradius 82.09
rwrist -19.8844
rhand -20.2571 6.22467
rfingers 7.12502
rthumb 6.09164 -23.6678
lclavicle -1.15295e-014 3.18055e-015
lhumerus -37.5103 4.24169 80.4334
lradius 41.0564
lwrist -4.29636
lhand -3.31215 34.1443
lfingers 7.12502
lthumb 22.4144 62.8638
rfemur -19.2142 -10.6 23.5272
rtibia 27.4388
rfoot -14.1617 -15.7507
rtoes 0.0620742
lfemur -13.5256 -1.9768 -9.96272
ltibia 51.165
lfoot 8.62417 -11.2776
ltoes -4.7314
316
root 1.70302 18.4573 8.73942 -387.2 -84.1789 393.251
lowerback 4.7064 0.700721 -2.6361
upperback 1.08585 0.822774 2.33047
thorax -1.59329 0.413286 3.83499
lowerneck -12.1869 -11.788 -16.8231
upperneck 17.069 -17.371 18.7508
head 10.7313 -7.69855 6.83553
rclavicle 1.80894e-014 2.38542e-014
rhumerus -17.1576 -32.6982 -62.574
rradius 81.9401
rwrist -19.8425
rhand -20.7547 7.07058
rfingers 7.12502
rthumb 5.61119 -22.8351
lclavicle 1.80894e-014 2.38542e-014
lhumerus -37.9062 3.76242 80.5187
lradius 41.1613
lwrist -4.79744
lhand -2.62447 33.301
lfingers 7.12502
lthumb 23.0743 61.9395
rfemur -18.8094 -10.3181 23.6008
rtibia 27.3057
rfoot -14.3996 -15.5292
rtoes -0.267395
lfemur -13.7586 -1.93065 -10.0922
ltibia 51.6544
lfoot 7.94482 -11.2201
ltoes -2.60158
317
root 1.62661 18.4567 8.7342 -389.614 -84.7572 395.706
lowerback 4.50105 0.655195 -2.49663
upperback 1.01438 0.773903 2.39703
thorax -1.54693 0.388787 3.8293
lowerneck -12.1176 -11.6312 -16.599
upperneck 17.1517 -17.1457 18.4739
head 10.6461 -7.60763 6.74602
rclavicle -1.05356e-014 -2.14687e-014
rhumerus -17.689 -32.4763 -62.832
rradius 81.8513
rwrist -19.8516
rhand -21.2636 7.85852
rfingers 7.12502
rthumb 5.11986 -22.0596
lclavicle -1.05356e-014 -2.14687e-014
lhumerus -38.2876 3.1913 80.8535
lradius 41.2404
lwrist -4.87376
lhand -2.57855 32.7517
lfingers 7.12502
lthumb 23.1184 61.3847
rfemur -18.5014 -10.0482 23.7341
rtibia 27.2074
rfoot -14.6265 -15.1864
rtoes -0.359404
lfemur -13.9986 -1.85846 -10.2056
ltibia 51.9939
lfoot 7.10142 -10.9773
ltoes -0.605005
318
root 1.55807 18.4504 8.72464 -390.479 -85.3849 396.584
lowerback 4.3996 0.718918 -2.1033
upperback 0.962817 0.878702 2.46171
thorax -1.54744 0.439958 3.66802
lowerneck -12.4276 -11.7484 -16.1812
upperneck 17.518 -17.2779 17.9019
head 10.756 -7.66077 6.43196
rclavicle 3.77691e-015 -6.36111e-015
rhumerus -18.3012 -32.5142 -62.8025
rradius 81.7279
rwrist -19.737
rhand -21.6073 8.77701
rfingers 7.12502
rthumb 4.788 -21.1489
lclavicle 3.77691e-015 -6.36111e-015
lhumerus -38.4883 2.20379 81.3664
lradius 41.3734
lwrist -4.84864
lhand -2.42947 32.8254
lfingers 7.12502
lthumb 23.2614 61.4403
rfemur -18.2129 -9.64058 24.0857
rtibia 27.1709
rfoot -14.832 -15.0532
rtoes -0.456727
lfemur -14.2926 -1.73635 -10.0743
ltibia 52.2395
lfoot 6.02427 -10.6065
ltoes -0.227664
319
root 1.49238 18.4445 8.71573 -393.171 -85.9049 399.262
lowerback 4.28571 0.782567 -1.94607
upperback 1.00293 0.970854 2.60423
thorax -1.44975 0.482418 3.72281
lowerneck -12.7142 -11.8859 -16.1514
upperneck 17.7405 -17.406 17.6194
head 10.8806 -7.71682 6.28715
rclavicle -6.55989e-015 -3.65764e-014
rhumerus -18.7333 -32.535 -62.6581
rradius 81.657
rwrist -19.7236
rhand -21.9328 9.66093
rfingers 7.12502
rthumb 4.47362 -20.2718
lclavicle -6.55989e-015 -3.65764e-014
lhumerus -38.429 1.80634 81.8061
lradius 41.2821
lwrist -5.72276
lhand -1.57709 32.3468
lfingers 7.12502
lthumb 24.079 60.856
rfemur -17.9644 -9.20809 24.2538
rtibia 27.235
rfoot -15.3785 -14.8846
rtoes -0.0562176
lfemur -14.5724 -1.63432 -10.1751
ltibia 52.4258
lfoot 4.50551 -10.1542
ltoes -2.53556
320
root 1.42453 18.4366 8.70715 -395.782 -86.4692 401.86
lowerback 4.14616 1.00238 -1.55182
upperback 1.08038 1.27863 2.6052
thorax -1.30804 0.631248 3.48573
lowerneck -12.803 -12.112 -16.5083
upperneck 17.7291 -17.7643 18.043
head 11.052 -7.86284 6.42457
rclavicle -1.19271e-015 -3.18055e-015
rhumerus -19.3335 -33.1711 -62.4118
rradius 81.5779
rwrist -19.8613
rhand -22.4041 10.4253
rfingers 7.12502
rthumb 4.0185 -19.5165
lclavicle -1.19271e-015 -3.18055e-015
lhumerus -38.1602 0.921821 82.2184
lradius 41.1361
lwrist -6.48178
lhand -0.968206 31.8429
lfingers 7.12502
lthumb 24.6627 60.2736
rfemur -17.7392 -8.73723 24.4826
rtibia 27.3311
rfoot -16.151 -14.6712
rtoes 1.09882
lfemur -14.834 -1.65737 -10.1836
ltibia 52.5711
lfoot 3.31929 -9.71313
ltoes -4.76205
321
root 1.35973 18.4274 8.70403 -403.174 -86.7576 409.264
lowerback 4.01099 1.03781 -1.4517
upperback 1.11348 1.32936 2.46732
thorax -1.19659 0.655107 3.28603
lowerneck -12.9662 -12.2339 -16.8541
upperneck 17.8575 -18.0001 18.4809
head 11.2692 -7.94674 6.59238
rclavicle 1.21259e-014 2.70347e-014
rhumerus -19.5753 -33.454 -62.6261
rradius 81.325
rwrist -19.8666
rhand -22.9033 11.1661
rfingers 7.12502
rthumb 3.53651 -18.7843
lclavicle 1.21259e-014 2.70347e-014
lhumerus -38.162 0.329343 82.4391
lradius 41.2318
lwrist -6.62222
lhand -0.601702 32.0765
lfingers 7.12502
lthumb 25.0139 60.4588
rfemur -17.5631 -8.33166 24.3321
rtibia 27.4574
rfoot -16.6369 -14.592
rtoes 2.08669
lfemur -15.1499 -1.81449 -10.5312
ltibia 52.6462
lfoot 2.57124 -9.51757
ltoes -3.82828
322
root 1.29462 18.4203 8.70107 -414.65 -86.9161 420.807
lowerback 3.75255 0.880807 -1.78215
upperback 1.17143 1.10848 2.54178
thorax -0.984987 0.5415 3.5652
lowerneck -13.3707 -12.1276 -16.5349
upperneck 18.0783 -17.7541 17.9905
head 11.2846 -7.82497 6.39429
rclavicle -4.96962e-015 -3.02153e-014
rhumerus -19.3216 -33.0237 -63.0739
rradius 81.0537
rwrist -19.8669
rhand -23.3127 11.846
rfingers 7.12502
rthumb 3.14109 -18.1106
lclavicle -4.96962e-015 -3.02153e-014
lhumerus -38.3627 0.588994 82.6812
lradius 41.3903
lwrist -6.6041
lhand -0.227177 32.211
lfingers 7.12502
lthumb 25.3728 60.5429
rfemur -17.4806 -7.74664 24.0287
rtibia 27.6401
rfoot -16.8951 -14.6077
rtoes 2.35759
lfemur -15.5 -1.96464 -11.0753
ltibia 52.6393
lfoot 1.89526 -9.3065
ltoes -0.978573
323
root 1.22624 18.4136 8.69109 -427.659 -87.0644 433.878
lowerback 3.57812 0.898906 -2.0191
upperback 1.15976 1.12653 2.63484
thorax -0.907038 0.549601 3.7971
lowerneck -13.5626 -12.0222 -15.1412
upperneck 17.9553 -17.4638 16.5992
head 10.9126 -7.70661 5.6998
rclavicle -6.95746e-015 -6.36111e-015
rhumerus -19.5227 -32.8937 -63.0189
rradius 80.9007
rwrist -20.0924
rhand -23.7539 12.4782
rfingers 7.12502
rthumb 2.71504 -17.4843
lclavicle -6.95746e-015 -6.36111e-015
lhumerus -38.5211 0.477586 83.0433
lradius 41.3867
lwrist -6.57672
lhand 0.135245 31.8194
lfingers 7.12502
lthumb 25.7199 60.1015
rfemur -17.4274 -7.22143 23.8724
rtibia 27.8007
rfoot -17.0892 -14.518
rtoes 1.96803
lfemur -15.8134 -2.03833 -11.5015
ltibia 52.5655
lfoot 1.18766 -8.97223
ltoes -0.598648
324
root 1.16388 18.4065 8.67643 -439.531 -87.1083 445.791
lowerback 3.54083 0.918022 -2.07338
upperback 1.09849 1.15215 2.60502
thorax -0.95164 0.564577 3.79575
lowerneck -13.3954 -11.9147 -15.7525
upperneck 18.0209 -17.4127 17.299
head 11.0379 -7.67715 6.077
rclavicle 2.5842e-015 1.11319e-014
rhumerus -19.9374 -32.8951 -62.9657
rradius 80.8033
rwrist -20.3766
rhand -24.31 13.1687
rfingers 7.12502
rthumb 2.17797 -16.7999
lclavicle 2.5842e-015 1.11319e-014
lhumerus -38.6267 0.328184 83.1714
lradius 41.3046
lwrist -6.71019
lhand 0.794545 31.5323
lfingers 7.12502
lthumb 26.3512 59.7215
rfemur -17.326 -6.99038 23.8331
rtibia 27.9484
rfoot -17.3726 -14.2869
rtoes 1.90382
lfemur -16.1488 -1.90898 -11.7735
ltibia 52.4161
lfoot 0.258483 -8.67015
ltoes -3.21966
325
root 1.107 18.3968 8.66246 -451.51 -87.3322 457.864
lowerback 3.57474 0.934685 -1.75027
upperback 1.02083 1.18604 2.57074
thorax -1.04605 0.583612 3.5747
lowerneck -13.6463 -11.8424 -15.5202
upperneck 18.2706 -17.3779 17.2804
head 11.1459 -7.63173 6.03515
rclavicle 2.5842e-015 3.33958e-014
rhumerus -20.2509 -32.9514 -63.1241
rradius 80.5983
rwrist -20.3178
rhand -24.7863 13.7595
rfingers 7.12502
rthumb 1.718 -16.2133
lclavicle 2.5842e-015 3.33958e-014
lhumerus -38.6725 -0.00279086 83.2041
lradius 41.2832
lwrist -6.72506
lhand 1.20259 31.6531
lfingers 7.12502
lthumb 26.7417 59.7833
rfemur -17.2901 -6.4882 24.0994
rtibia 28.1811
rfoot -17.7852 -14.1969
rtoes 2.4356
lfemur -16.5727 -1.60845 -11.6968
ltibia 52.2022
lfoot -0.758647 -8.52983
ltoes -5.23791
326
root 1.04654 18.397 8.65455 -464.436 -87.1921 470.92
lowerback 3.61987 1.05988 -1.5838
upperback 0.89366 1.36122 2.50382
thorax -1.20969 0.675291 3.40109
lowerneck -13.8361 -11.911 -15.3112
upperneck 18.4659 -17.5168 17.1761
head 11.2478 -7.67618 5.9298
rclavicle -9.93923e-015 -5.56597e-015
rhumerus -20.6971 -33.1852 -62.9604
rradius 80.383
rwrist -20.311
rhand -25.2289 14.3523
rfingers 7.12502
rthumb 1.29051 -15.6236
lclavicle -9.93923e-015 -5.56597e-015
lhumerus -38.7545 -0.797273 83.5087
lradius 41.316
lwrist -6.35587
lhand 0.870458 31.8576
lfingers 7.12502
lthumb 26.4239 60.0359
rfemur -17.3861 -5.81204 24.0757
rtibia 28.5402
rfoot -18.2198 -14.1761
rtoes 3.12926
lfemur -16.9643 -1.52748 -11.956
ltibia 51.8518
lfoot -1.44997 -8.45897
ltoes -3.83436
327
root 0.983306 18.4076 8.6445 -473.378 -86.8368 479.895
lowerback 3.62086 1.01342 -1.7473
upperback 0.753926 1.29688 2.52922
thorax -1.35342 0.648037 3.52173
lowerneck -13.4869 -11.8028 -15.0826
upperneck 18.3353 -17.3779 16.9497
head 11.0557 -7.64273 5.85025
rclavicle -5.36719e-015 -1.43125e-014
rhumerus -21.0444 -32.9175 -62.8422
rradius 80.2204
rwrist -20.5054
rhand -25.674 15.0924
rfingers 7.12502
rthumb 0.860602 -14.8856
lclavicle -5.36719e-015 -1.43125e-014
lhumerus -39.0773 -0.858972 83.6694
lradius 41.2941
lwrist -6.23681
lhand 0.472643 31.9186
lfingers 7.12502
lthumb 26.043 60.1536
rfemur -17.4128 -5.31271 23.9314
rtibia 28.9713
rfoot -18.5646 -14.1301
rtoes 2.93365
lfemur -17.2161 -1.68059 -12.3419
ltibia 51.3734
lfoot -1.7583 -8.1396
ltoes -1.81929
328
root 0.925993 18.3998 8.63852 -480.016 -86.6169 486.54
lowerback 3.58269 0.789876 -1.89333
upperback 0.695145 0.995164 2.65072
thorax -1.37458 0.498701 3.74549
lowerneck -13.162 -11.5228 -14.8442
upperneck 18.1224 -16.9695 16.7312
head 10.7911 -7.48543 5.82388
rclavicle -1.78906e-014 -1.43125e-014
rhumerus -21.0148 -32.2717 -63.1476
rradius 79.8988
rwrist -20.1972
rhand -25.9578 15.4815
rfingers 7.12502
rthumb 0.586549 -14.4974
lclavicle -1.78906e-014 -1.43125e-014
lhumerus -39.2737 -0.332156 83.5999
lradius 41.1712
lwrist -6.44669
lhand 0.78653 32.0934
lfingers 7.12502
lthumb 26.3435 60.2837
rfemur -17.491 -5.66563 23.9912
rtibia 29.4337
rfoot -18.7122 -13.57
rtoes 1.04421
lfemur -17.485 -1.8285 -12.5555
ltibia 50.8267
lfoot -2.50502 -7.8121
ltoes -4.37211
